<svg xmlns="http://www.w3.org/2000/svg" viewBox="0 0 512 512">
  <defs>
    <linearGradient id="bg" x1="0" y1="0" x2="1" y2="1">
      <stop offset="0%" stop-color="#07110d"/>
      <stop offset="100%" stop-color="#0d1813"/>
    </linearGradient>
    <linearGradient id="seal" x1="0" y1="0" x2="1" y2="1">
      <stop offset="0%" stop-color="#34d399"/>
      <stop offset="100%" stop-color="#059669"/>
    </linearGradient>
    <radialGradient id="glow" cx="50%" cy="45%" r="55%">
      <stop offset="0%" stop-color="#22c55e" stop-opacity="0.18"/>
      <stop offset="100%" stop-color="#22c55e" stop-opacity="0"/>
    </radialGradient>
  </defs>
  <rect width="512" height="512" rx="116" fill="url(#bg)"/>
  <rect x="22" y="22" width="468" height="468" rx="104" fill="none" stroke="#163427" stroke-width="4"/>
  <circle cx="256" cy="256" r="154" fill="url(#glow)"/>
  <circle cx="256" cy="256" r="136" fill="#0b1e17" stroke="#14532d" stroke-width="18"/>
  <circle cx="256" cy="256" r="126" fill="none" stroke="#34d399" stroke-width="18"/>
  <path d="M256 132 342 218 304 360 256 404 208 360 170 218Z" fill="url(#seal)"/>
  <path d="M256 176 298 218 276 316 256 330 236 316 214 218Z" fill="#07110d"/>
  <circle cx="256" cy="253" r="20" fill="#34d399"/>
  <path d="M222 344 256 374 290 344" fill="none" stroke="#07110d" stroke-linecap="round" stroke-linejoin="round" stroke-width="18"/>
</svg>
